<svg width="25" height="8" viewBox="0 0 25 8" fill="none" xmlns="http://www.w3.org/2000/svg">
<path d="M10.4688 7.5V1.875H7.65625V0H15.1562V1.875H12.3438V7.5H10.4688ZM0 7.5V1.25C0 0.895833 0.119792 0.598958 0.359375 0.359375C0.598958 0.119792 0.895833 0 1.25 0H5C5.35417 0 5.65104 0.119792 5.89062 0.359375C6.13021 0.598958 6.25 0.895833 6.25 1.25V7.5H4.375V5.625H1.875V7.5H0ZM1.875 3.75H4.375V1.875H1.875V3.75ZM16.875 7.5V1.25C16.875 0.895833 16.9948 0.598958 17.2344 0.359375C17.474 0.119792 17.7708 0 18.125 0H23.75C24.1042 0 24.401 0.119792 24.6406 0.359375C24.8802 0.598958 25 0.895833 25 1.25V7.5H23.125V1.875H21.875V6.25H20V1.875H18.75V7.5H16.875Z" fill="#6D4200"/>
</svg>
