<svg width="18" height="18" viewBox="0 0 18 18" fill="none" xmlns="http://www.w3.org/2000/svg">
<path d="M15.77 17.1L9.785 11.115C9.31 11.495 8.76375 11.7958 8.14625 12.0175C7.52875 12.2392 6.87167 12.35 6.175 12.35C4.44917 12.35 2.98854 11.7523 1.79313 10.5569C0.597708 9.36146 0 7.90083 0 6.175C0 4.44917 0.597708 2.98854 1.79313 1.79313C2.98854 0.597708 4.44917 0 6.175 0C7.90083 0 9.36146 0.597708 10.5569 1.79313C11.7523 2.98854 12.35 4.44917 12.35 6.175C12.35 6.87167 12.2392 7.52875 12.0175 8.14625C11.7958 8.76375 11.495 9.31 11.115 9.785L17.1 15.77L15.77 17.1V17.1M6.175 10.45C7.3625 10.45 8.37187 10.0344 9.20312 9.20312C10.0344 8.37187 10.45 7.3625 10.45 6.175C10.45 4.9875 10.0344 3.97812 9.20312 3.14687C8.37187 2.31562 7.3625 1.9 6.175 1.9C4.9875 1.9 3.97812 2.31562 3.14687 3.14687C2.31562 3.97812 1.9 4.9875 1.9 6.175C1.9 7.3625 2.31562 8.37187 3.14687 9.20312C3.97812 10.0344 4.9875 10.45 6.175 10.45V10.45" fill="#121212"/>
</svg>
