<svg width="18" height="20" viewBox="0 0 18 20" fill="none" xmlns="http://www.w3.org/2000/svg">
<path fill-rule="evenodd" clip-rule="evenodd" d="M12.3725 0.0167969C12.3737 0.321875 12.4627 4.73086 17.0897 5.00586C17.0897 6.27734 17.0913 7.19922 17.0913 8.4125C16.7409 8.43281 14.0452 8.23711 12.3674 6.74063L12.3624 13.3727C12.426 17.9758 9.03853 20.777 4.61079 19.8094C-3.02436 17.5254 -0.487252 6.20117 7.17915 7.41328C7.17915 11.0691 7.18111 7.41211 7.18111 11.0691C4.01392 10.6031 2.95454 13.2379 3.79634 15.1242C4.56197 16.8418 7.71548 17.2141 8.81548 14.791C8.94009 14.3168 9.0022 13.7762 9.0022 13.1691V0L12.3725 0.0167969Z" fill="#007E43"/>
</svg>
